<svg width="192" height="192" viewBox="0 0 192 192" xmlns="http://www.w3.org/2000/svg">
    <defs>
        <linearGradient x1="-4.234%" y1="93.418%" x2="96.017%" y2="17.408%" id="n2b82ah3ia">
            <stop stop-color="#0B3ACA" offset="0%"/>
            <stop stop-color="#3888FF" offset="100%"/>
        </linearGradient>
        <linearGradient x1="12.699%" y1="93.716%" x2="94.106%" y2="19.567%" id="58guptatqb">
            <stop stop-color="#0F15B5" offset="0%"/>
            <stop stop-color="#066EE6" offset="100%"/>
        </linearGradient>
    </defs>
    <g fill="none" fill-rule="evenodd">
        <rect fill="#12111A" width="192" height="192" rx="24"/>
        <path d="m147.98 134.128 17.997-31.237a30.148 30.148 0 0 0 4.014-14.468c.265-14.045-5.565-24.514-17.489-31.406-12-6.952-23.939-6.68-35.818.819a30.109 30.109 0 0 0-10.003 10.422L90.372 96.57c-3.233 5.614-1.315 12.791 4.285 16.033a11.688 11.688 0 0 0 8.888 1.174c3-.806 5.559-2.773 7.112-5.469l15.48-26.867c3.064-5.181 9.714-6.932 14.924-3.93 5.21 3.001 7.045 9.642 4.12 14.903l-.02.036-17.418 29.955a11.716 11.716 0 0 0-1.202 8.868 11.69 11.69 0 0 0 5.406 7.123l.04.02c5.598 3.24 12.757 1.32 15.993-4.288z" fill="url(#n2b82ah3ia)"/>
        <path d="M122.966 86.332c0 .216-.018.433-.033.647l-12.291 21.335a11.715 11.715 0 0 1-7.112 5.469c-3 .805-6.198.383-8.888-1.174a11.717 11.717 0 0 1-5.546-7.485l8.744-15.166a11.019 11.019 0 0 0 1.117-8.31l7.724-13.39a30.081 30.081 0 0 1 6.552-7.885c6.893 6.583 10.137 15.236 9.733 25.959z" fill="#000" fill-rule="nonzero" opacity=".15"/>
        <path d="m23.57 122.387 31.01-53.873A30.047 30.047 0 0 1 65.09 57.77c11.988-7.236 23.94-7.405 35.858-.509 12.004 6.93 17.742 17.423 17.213 31.478a30.183 30.183 0 0 1-4.009 13.926l-18.14 31.466A11.707 11.707 0 0 1 85.869 140c-4.184 0-8.05-2.237-10.142-5.869a11.76 11.76 0 0 1 0-11.738l17.309-30.027a11.052 11.052 0 0 0 1.106-8.375 11.027 11.027 0 0 0-5.13-6.704c-5.248-3.036-11.957-1.234-14.988 4.024l-.015.03-30.182 52.77a11.679 11.679 0 0 1-7.073 5.473 11.652 11.652 0 0 1-8.863-1.143l-.034-.018a11.734 11.734 0 0 1-5.458-7.128 11.76 11.76 0 0 1 1.17-8.908z" fill="url(#58guptatqb)"/>
    </g>
</svg>
