<svg width="636" height="80" viewBox="0 0 636 80" xmlns="http://www.w3.org/2000/svg">
    <defs>
        <linearGradient x1="-4.438%" y1="93.418%" x2="96.189%" y2="17.408%" id="ckjjyozvca">
            <stop stop-color="#0B3ACA" offset="0%"/>
            <stop stop-color="#3888FF" offset="100%"/>
        </linearGradient>
        <linearGradient x1="12.699%" y1="93.553%" x2="94.106%" y2="19.681%" id="2trszpj7xb">
            <stop stop-color="#0F15B5" offset="0%"/>
            <stop stop-color="#066EE6" offset="100%"/>
        </linearGradient>
    </defs>
    <g fill="none" fill-rule="evenodd">
        <path d="m114.742 74.662 16.39-28.398a27.368 27.368 0 0 0 3.658-13.152c.24-12.768-5.07-22.285-15.93-28.55-10.928-6.321-21.803-6.073-32.623.743a27.394 27.394 0 0 0-9.11 9.475L62.273 40.52c-2.945 5.103-1.198 11.628 3.903 14.575a10.663 10.663 0 0 0 14.572-3.905l14.1-24.425c2.79-4.71 8.847-6.301 13.592-3.573 4.745 2.73 6.417 8.766 3.753 13.55l-.02.032L96.31 64.005a10.633 10.633 0 0 0 3.83 14.537l.035.019c5.1 2.945 11.62 1.2 14.567-3.9z" fill="url(#ckjjyozvca)" transform="translate(.082)"/>
        <path d="M92.04 31.21c0 .197-.016.394-.03.589L80.817 51.195a10.667 10.667 0 0 1-14.572 3.904 10.654 10.654 0 0 1-5.052-6.805l7.965-13.787a10 10 0 0 0 1.017-7.554L77.21 14.78a27.358 27.358 0 0 1 5.967-7.168c6.278 5.985 9.233 13.85 8.865 23.598z" fill="#000" fill-rule="nonzero" opacity=".15"/>
        <path d="m1.43 63.989 28.244-48.976a27.34 27.34 0 0 1 9.573-9.768c10.918-6.577 21.804-6.731 32.659-.462 10.933 6.3 16.158 15.839 15.677 28.616a27.401 27.401 0 0 1-3.651 12.66L67.409 74.665a10.666 10.666 0 0 1-18.475 0 10.674 10.674 0 0 1 0-10.671L64.7 36.696a10.031 10.031 0 0 0-3.665-13.707c-4.78-2.76-10.89-1.123-13.65 3.658l-.014.027-27.49 47.972a10.634 10.634 0 0 1-14.515 3.937l-.03-.017A10.67 10.67 0 0 1 1.429 63.99z" fill="url(#2trszpj7xb)" transform="translate(.082)"/>
        <path d="M243.027 78.434h12.532V.112h-14.547l-25.737 36.7-25.849-36.7H174.88v78.322h12.533V18.35l26.297 37.035h2.685l26.633-37.035v60.084zm76.177-23.385c1.045-10.89-1.007-19.17-6.154-24.84-5.148-5.668-12.347-8.503-21.597-8.503-8.58 0-15.554 2.686-20.926 8.056-5.37 5.37-8.056 12.27-8.056 20.7 0 8.876 2.704 15.962 8.112 21.258 5.409 5.296 12.627 7.944 21.653 7.944 4.476 0 8.859-.82 13.148-2.461 4.29-1.641 7.815-3.954 10.575-6.937l-7.497-7.273c-1.641 1.79-3.973 3.226-6.994 4.308-3.021 1.081-6.024 1.622-9.008 1.622-4.998 0-9.12-1.268-12.365-3.804-3.245-2.536-5.129-5.893-5.651-10.07h44.76zm-44.536-9.734c.895-4.252 2.89-7.534 5.986-9.846C283.75 33.156 287.462 32 291.79 32c4.7 0 8.523 1.156 11.47 3.469 2.946 2.312 4.569 5.594 4.867 9.846h-33.458zm56.371-36.812v14.77h-10.63v9.958h10.63v26.293c0 6.49 1.623 11.394 4.868 14.714 3.245 3.32 7.889 4.904 13.931 4.755 3.656 0 7.348-.82 11.078-2.462l-3.357-9.846c-2.536 1.268-4.886 1.902-7.05 1.902-5.296 0-7.944-3.02-7.944-9.063V33.231h16.225v-9.958h-16.113v-16l-11.638 1.23zm77.297 23.385c-1.716-3.058-4.29-5.482-7.721-7.273-3.432-1.79-7.125-2.685-11.079-2.685-8.206 0-15.013 2.555-20.421 7.664-5.409 5.11-8.113 12.14-8.113 21.091 0 9.175 2.648 16.336 7.945 21.483 5.296 5.147 12.085 7.683 20.366 7.608 3.73 0 7.404-.895 11.022-2.685 3.618-1.79 6.285-4.364 8-7.72l.56 8.95h10.966v-55.16h-11.19l-.335 8.727zm-17.904.56c3.282 0 6.21.67 8.784 2.014 2.573 1.342 4.513 3.095 5.819 5.258 1.305 2.163 2.275 4.55 2.909 7.161.634 2.61.634 5.203 0 7.776-.634 2.574-1.604 4.942-2.91 7.105-1.305 2.163-3.245 3.916-5.818 5.259-2.574 1.343-5.502 2.014-8.784 2.014-5.073 0-9.325-1.678-12.757-5.035-3.432-3.357-5.147-7.795-5.147-13.315s1.715-9.94 5.147-13.258c3.432-3.32 7.684-4.98 12.757-4.98zM581.254.112v78.21H570.4l-.672-8.728c-4.028 6.565-10.406 9.847-19.135 9.847-8.206 0-14.957-2.574-20.254-7.72-5.296-5.148-7.945-12.16-7.945-21.036 0-9.1 2.593-16.168 7.777-21.202 5.185-5.035 11.918-7.553 20.198-7.553 3.656 0 7.367.877 11.135 2.63 3.767 1.752 6.508 4.158 8.224 7.216V.112h11.526zM489.746 0l35.137 78.322h-13.316l-7.498-16.448h-42.41l-7.385 16.448h-13.317L476.094 0h13.652zm61.63 32.783c-4.998 0-9.157 1.604-12.476 4.811-3.32 3.208-4.98 7.572-4.98 13.091 0 5.446 1.66 9.81 4.98 13.091 3.32 3.282 7.478 4.923 12.477 4.923 4.923 0 9.082-1.678 12.476-5.035 3.395-3.356 5.092-7.683 5.092-12.979 0-5.221-1.697-9.51-5.092-12.867-3.394-3.356-7.553-5.035-12.476-5.035zm-68.456-19.58L466.36 50.462h33.122l-16.56-37.26zM632.59 29.09c-5.52-4.923-12.608-7.385-21.261-7.385-5.968 0-11.284 1.399-15.946 4.196-4.663 2.797-6.994 6.993-6.994 12.588.075 9.622 7.572 15.142 22.492 16.559 4.327.448 7.553 1.23 9.68 2.35 2.126 1.118 3.151 2.871 3.077 5.258-.075 2.387-1.269 4.178-3.581 5.371-2.313 1.193-5.036 1.79-8.169 1.79-8.131-.149-14.584-2.872-19.359-8.168l-6.042 8.168C592.529 76.606 600.922 80 611.664 80c7.087 0 12.757-1.604 17.01-4.811 4.251-3.208 6.415-7.422 6.49-12.644 0-3.356-.69-6.19-2.07-8.503-1.38-2.312-3.358-4.047-5.931-5.203-2.574-1.156-4.999-1.977-7.274-2.461-2.275-.485-4.98-.877-8.113-1.175-7.907-.746-11.899-3.096-11.973-7.05 0-2.162 1.063-3.822 3.19-4.978 2.125-1.156 4.979-1.697 8.56-1.623 5.967 0 10.816 1.716 14.546 5.147l6.49-7.608z" fill="#FFF" fill-rule="nonzero"/>
    </g>
</svg>
