<svg width="80" height="80" viewBox="0 0 80 80" xmlns="http://www.w3.org/2000/svg">
    <defs>
        <linearGradient x1="85.355%" y1="14.645%" x2="14.645%" y2="85.355%" id="j60mmiwqma">
            <stop stop-color="#FF2D55" offset="0%"/>
            <stop stop-color="#FFBC5B" offset="100%"/>
        </linearGradient>
        <linearGradient x1="49.966%" y1="0%" x2="49.966%" y2="100%" id="x1qs5noupb">
            <stop stop-color="#A524B3" offset="0%"/>
            <stop stop-color="#FF2D55" offset="100%"/>
        </linearGradient>
        <linearGradient x1="49.966%" y1="0%" x2="49.966%" y2="100%" id="c5a6fhgslc">
            <stop stop-color="#A524B3" offset="0%"/>
            <stop stop-color="#FF2D55" offset="100%"/>
        </linearGradient>
    </defs>
    <g fill-rule="nonzero" fill="none">
        <circle fill="url(#j60mmiwqma)" cx="40" cy="40" r="40"/>
        <path fill="url(#x1qs5noupb)" d="M28.34 26v30h25z"/>
        <path fill="#FFF" d="M3.34 56h25V26z"/>
        <path d="M8 64c2.28 3.02 4.98 5.72 8 8h48c3.02-2.28 5.72-4.98 8-8H8z" fill="#FC9965"/>
        <path d="M16 72c6.68 5.02 15 8 24 8s17.32-2.98 24-8H16z" fill="#FF2D55"/>
        <path fill="url(#c5a6fhgslc)" d="M53.66 42v22H72z"/>
        <path d="M53.66 56H3.34A39.83 39.83 0 0 0 8 64h45.68v-8h-.02z" fill="#FFBC5B"/>
        <path fill="#FFF" d="M35.34 64h18.32V42z"/>
        <circle fill="#FFC95B" cx="53.66" cy="26" r="10"/>
        <circle fill="#FFC95B" cx="28.34" cy="15" r="5"/>
    </g>
</svg>
