<svg width="151" height="56" viewBox="0 0 151 56" xmlns="http://www.w3.org/2000/svg">
    <g fill-rule="nonzero" fill="none">
        <path fill="#C00" d="M0 0v22.842L11.226 11.68zM35.17 11.68l11.227 11.226V0zM1.557 25.243 22.517 56l-10.06-41.66zM23.944 56l20.96-30.757L34.001 14.34zM31.536 13.887H14.925l4.154 18.038 4.152 18.04 4.154-18.04z"/>
        <path d="M72.936 13.951c6.423 0 9.733 3.05 8.89 8.825l-.261 2.011c-.519 3.44-2.27 5.777-4.738 7.075l3.052 9.344h-8.306l-2.077-7.918h-1.882l-1.168 7.918H58.66l4.025-27.188h10.251v-.067zm-3.374 5.906-1.103 7.722h2.402c.713.066 1.428-.195 2.01-.714.52-.454.909-1.167.909-1.882l.39-2.595c.194-1.557-.585-2.531-2.142-2.531h-2.466zM86.043 13.951h17.456l-.908 6.294h-9.668l-.649 4.218h9.28l-.908 6.164h-9.281l-1.557 10.578h-7.786zM104.862 22.712c.908-5.97 5.191-9.15 12.004-9.15 6.749 0 10.187 3.244 9.279 9.15l-1.428 9.667c-.907 5.97-5.256 9.151-12.004 9.151-6.748 0-10.122-3.179-9.28-9.151l1.43-9.667zm6.62 7.915c-.327 2.402-.584 5.062 2.009 5.062s3.18-2.662 3.504-5.062l.908-6.23c.326-2.334.584-4.995-2.076-4.995-.779-.065-1.556.259-2.207.779-.584.518-.974 1.297-.974 2.077l-1.165 8.37zM138.15 22.581l4.284-8.695H151l-7.657 13.172 3.828 14.016h-8.823l-1.557-8.697-4.413 8.76h-8.825l7.982-13.563-3.633-13.626h8.5z" fill="#FFF"/>
    </g>
</svg>
