<svg width="240" height="38" viewBox="0 0 240 38" xmlns="http://www.w3.org/2000/svg">
    <g fill-rule="nonzero" fill="none">
        <path d="M224.232 6.346c-1.494.01-2.703 1.241-2.703 2.757 0 1.483 1.157 2.694 2.605 2.755l6.884.001c4.957 0 8.982 4.078 8.982 9.103 0 5.01-4.002 9.08-8.94 9.103h-13.814c-.438 0-.657-.287-.81-.64l-2.004-4.898c-.188-.437.12-.808.474-.808h16.153a2.743 2.743 0 0 0 2.691-2.757 2.741 2.741 0 0 0-2.69-2.755h-6.81c-4.958 0-8.983-4.08-8.983-9.104 0-5.024 4.025-9.103 8.982-9.103h14.273c.438 0 .794.287.642.642l-2.172 5.064c-.147.34-.455.641-.81.641l-11.933-.001h-.017M128.19 11.86l-7.59 17.204c-.251.552-.381 1-.933 1l-5.013.001c-.72 0-1.116-.197-.766-.999L126.146.896c.251-.468.407-.812.959-.812h2.17c.552 0 .707.344.958.812l12.26 28.17c.348.802-.048 1-.767 1l-5.013-.003c-.552 0-.682-.447-.933-.999l-7.59-17.205M165.691 30.066a.642.642 0 0 1-.642-.642V.642c0-.355.288-.642.642-.642h5.067c.354 0 .642.287.642.642v23.077h12.894c.354 0 .67.37.475.808l-2.09 4.897c-.194.438-.454.642-.892.642h-16.096M147.67 6.347h-8.049a.642.642 0 0 1-.642-.641V.642c0-.355.288-.642.642-.642h22.447c.354 0 .642.287.642.642v5.064a.642.642 0 0 1-.642.641h-8.048v23.077a.642.642 0 0 1-.642.642h-5.067a.642.642 0 0 1-.642-.642V6.347M199.523 11.86l-7.59 17.204c-.251.552-.381 1-.933 1l-5.013.001c-.719 0-1.116-.197-.766-.999L197.48.896c.25-.468.406-.812.958-.812h2.17c.552 0 .708.344.959.812l12.258 28.17c.35.802-.047 1-.766 1l-5.013-.003c-.552 0-.682-.447-.933-.999l-7.59-17.205M78.123 0h13.48c5.21 0 9.442 4.36 9.442 9.73 0 4.037-2.392 7.504-5.794 8.975l6.956 10.361c.167.802-.298 1-1.017 1l-5.264-.003c-.552 0-.766-.53-1.1-.999l-6.65-9.605h-4.344v9.965a.642.642 0 0 1-.642.642h-5.067a.642.642 0 0 1-.642-.642V.642c0-.355.288-.642.642-.642zm13.48 6.347h-7.771v6.765h7.77v-.015c1.804 0 3.269-1.509 3.269-3.367 0-1.859-1.465-3.368-3.268-3.368v-.015zM61.113 11.86l-7.59 17.204c-.25.552-.38 1-.933 1l-5.013.001c-.719 0-1.115-.197-.766-.999L59.07.896c.25-.468.406-.812.958-.812h2.17c.552 0 .708.344.959.812l12.259 28.17c.349.802-.048 1-.766 1l-5.014-.003c-.552 0-.682-.447-.933-.999l-7.59-17.205M34.617 6.347h-9.051c-.438 0-.718-.287-.502-.808L27.18.642c.104-.253.371-.642.726-.642h21.109c.354 0 .642.287.642.642v5.064a.642.642 0 0 1-.642.641h-8.048v23.077a.642.642 0 0 1-.642.642h-5.066a.642.642 0 0 1-.642-.642V6.347" fill="#FFF"/>
        <path d="M9.573 6.346C8.08 6.356 6.87 7.587 6.87 9.103c0 1.483 1.157 2.694 2.605 2.755l6.884.001c4.958 0 8.983 4.078 8.983 9.103 0 5.01-4.003 9.08-8.94 9.103H.665c-.438 0-.758-.37-.642-.64l2.089-5.065c.08-.28.371-.641.725-.641h13.563a2.743 2.743 0 0 0 2.691-2.757 2.741 2.741 0 0 0-2.69-2.755h-6.81c-4.958 0-8.983-4.08-8.983-9.104C.609 4.08 4.634 0 9.59 0h14.607c.355 0 .69.246.559.642l-2.173 5.064c-.186.452-.454.641-.809.641L9.591 6.346h-.018" fill="#FFF"/>
        <path fill="#32FEFF" d="m128.2 38-5.013-10.022h9.86L128.2 38"/>
    </g>
</svg>
